<?xml version="1.0" encoding="UTF-8" standalone="no"?>
<!-- Generator: Adobe Illustrator 19.0.1, SVG Export Plug-In . SVG Version: 6.00 Build 0)  -->

<svg
   xmlns:dc="http://purl.org/dc/elements/1.1/"
   xmlns:cc="http://creativecommons.org/ns#"
   xmlns:rdf="http://www.w3.org/1999/02/22-rdf-syntax-ns#"
   xmlns:svg="http://www.w3.org/2000/svg"
   xmlns="http://www.w3.org/2000/svg"
   xmlns:sodipodi="http://sodipodi.sourceforge.net/DTD/sodipodi-0.dtd"
   xmlns:inkscape="http://www.inkscape.org/namespaces/inkscape"
   version="1.1"
   id="Layer_1"
   x="0px"
   y="0px"
   viewBox="0 0 34 32.799999"
   xml:space="preserve"
   inkscape:version="0.91 r13725"
   sodipodi:docname="Connected.svg"
   width="34"
   height="32.799999"><metadata
     id="metadata4164"><rdf:RDF><cc:Work
         rdf:about=""><dc:format>image/svg+xml</dc:format><dc:type
           rdf:resource="http://purl.org/dc/dcmitype/StillImage" /><dc:title></dc:title></cc:Work></rdf:RDF></metadata><defs
     id="defs4162" /><sodipodi:namedview
     pagecolor="#ffffff"
     bordercolor="#666666"
     borderopacity="1"
     objecttolerance="10"
     gridtolerance="10"
     guidetolerance="10"
     inkscape:pageopacity="0"
     inkscape:pageshadow="2"
     inkscape:window-width="1138"
     inkscape:window-height="765"
     id="namedview4160"
     showgrid="false"
     fit-margin-top="0"
     fit-margin-left="0"
     fit-margin-right="0"
     fit-margin-bottom="0"
     inkscape:zoom="2.36"
     inkscape:cx="17.4"
     inkscape:cy="16.6"
     inkscape:window-x="404"
     inkscape:window-y="197"
     inkscape:window-maximized="0"
     inkscape:current-layer="Layer_1" /><style
     type="text/css"
     id="style4146">
	.st0{fill:#43B4E4;}
	.st1{fill:#FFFFFF;}
</style><path
     class="st0"
     d="m 2.3,4.2 c 0,0 -2.3,0 -2.3,2.3 l 0,24 c 0,0 0,2.3 2.3,2.3 l 29.4,0 c 0,0 2.3,0 2.3,-2.3 l 0,-24 c 0,0 0,-2.3 -2.3,-2.3 l -29.4,0 z"
     id="path4148"
     inkscape:connector-curvature="0"
     style="fill:#43b4e4" /><polygon
     class="st0"
     points="58.5,33.8 53.5,38 58.5,40.4 "
     id="polygon4150"
     style="fill:#43b4e4"
     transform="translate(-32.6,-33.8)" /><polygon
     class="st1"
     points="50,50.3 48.2,50.3 48.2,53.9 44.6,56.7 45.5,58 48.7,55.6 49.6,55.6 52.7,58 53.7,56.7 50,53.9 "
     id="polygon4152"
     style="fill:#ffffff"
     transform="translate(-32.6,-33.8)" /><path
     class="st1"
     d="m 9.2,31.2 c 0.3,0 0.5,-0.2 0.5,-0.5 l 0,-5.2 c 0,0 0,0 0,0 l 0,-3 c 0,0 0,-0.1 0.1,-0.1 0,0 0,0 0,0 0,0 0.1,0 0.1,0 0.3,0.3 0.5,0.8 0.5,1.3 l 0,1.3 c 0,0.3 0.2,0.5 0.5,0.5 0.3,0 0.5,-0.2 0.5,-0.5 l 0,-1.3 c 0,-0.8 -0.3,-1.5 -0.8,-2.1 C 10.1,21 9.3,20.7 8.5,20.7 l 0,0 c -1.6,0 -2.9,1.3 -2.9,2.9 l 0,1.4 c 0,0.3 0.2,0.5 0.5,0.5 0.3,0 0.5,-0.2 0.5,-0.5 l 0,-1.4 c 0,-0.4 0.2,-0.9 0.5,-1.2 0,0 0,0 0.1,0 0,0 0,0 0,0 0,0 0.1,0.1 0.1,0.1 l 0,8.3 c 0,0.3 0.2,0.5 0.5,0.5 0.3,0 0.5,-0.2 0.5,-0.5 l 0,-4.6 c 0,-0.1 0,-0.1 0.1,-0.1 l 0.3,0 c 0.1,0 0.1,0 0.1,0.1 l 0,4.6 c -0.1,0.2 0.1,0.4 0.4,0.4 m -0.8,-11 c 0.6,0 1.2,-0.5 1.2,-1.2 0,-0.6 -0.5,-1.2 -1.2,-1.2 -0.6,0 -1.2,0.5 -1.2,1.2 0.1,0.6 0.6,1.2 1.2,1.2"
     id="path4154"
     inkscape:connector-curvature="0"
     style="fill:#ffffff" /><path
     class="st1"
     d="m 25.6,31.2 c 0.3,0 0.5,-0.2 0.5,-0.5 l 0,-3.6 c 0,0 0,-0.1 0,-0.1 0,0 0,0 0.1,0 l 0.5,0 c 0.3,0 0.5,-0.1 0.6,-0.3 0.1,-0.2 0.1,-0.4 0,-0.6 l -1.6,-3.9 c 0,0 0,-0.1 0,-0.1 0,0 0,0 0.1,0 0,0 0,0 0.1,0 0.6,0.5 1,1.4 1.5,2.5 0.1,0.2 0.2,0.4 0.3,0.6 0.1,0.2 0.3,0.3 0.5,0.3 0.1,0 0.1,0 0.2,0 0.1,-0.1 0.2,-0.2 0.3,-0.3 0,-0.1 0,-0.3 0,-0.4 -0.1,-0.2 -0.2,-0.4 -0.3,-0.6 -0.6,-1.4 -1.4,-3.5 -3.4,-3.5 -2,0 -2.9,2.1 -3.4,3.5 l 0,0 c -0.1,0.2 -0.2,0.4 -0.2,0.6 -0.1,0.1 -0.1,0.3 0,0.4 0,0.1 0.1,0.2 0.3,0.3 0.1,0 0.1,0 0.2,0 0.2,0 0.4,-0.1 0.5,-0.3 0.1,-0.2 0.2,-0.4 0.3,-0.6 0.4,-1 0.8,-2 1.5,-2.5 0,0 0,0 0.1,0 0,0 0,0 0.1,0 0,0 0.1,0.1 0,0.1 l -2,3.9 c -0.1,0.2 -0.1,0.5 0,0.6 0.1,0.2 0.3,0.3 0.6,0.3 l 0.5,0 c 0,0 0.1,0 0.1,0 0,0 0,0 0,0.1 l 0,3.6 c 0,0.3 0.2,0.5 0.5,0.5 0.3,0 0.5,-0.2 0.5,-0.5 l 0,-3.6 c 0,-0.1 0,-0.1 0.1,-0.1 l 0.3,0 c 0.1,0 0.1,0 0.1,0.1 l 0,3.6 c 0,0.3 0.2,0.5 0.5,0.5 m -0.8,-11 c 0.6,0 1.1,-0.5 1.1,-1.2 0,-0.6 -0.5,-1.2 -1.1,-1.2 -0.6,0 -1.1,0.5 -1.1,1.2 0,0.6 0.5,1.2 1.1,1.2"
     id="path4156"
     inkscape:connector-curvature="0"
     style="fill:#ffffff" /><path
     class="st1"
     d="m 14.2,13.1 c 0,0.8 0.6,1.4 1.4,1.4 0.8,0 1.4,-0.6 1.4,-1.4 0,-0.6 -0.4,-1.1 -1,-1.3 0.1,-0.1 0.2,-0.2 0.2,-0.3 0.7,0.2 1.2,0.9 1.2,1.6 0,1 -0.8,1.7 -1.7,1.7 -1,0 -1.7,-0.8 -1.7,-1.7 0,-0.6 0.3,-1.2 0.8,-1.5 0.1,0.1 0.1,0.2 0.2,0.3 -0.5,0.3 -0.8,0.7 -0.8,1.2 m 2.2,-5.5 c 0.5,0 0.9,-0.4 0.9,-0.9 0,-0.5 -0.4,-0.9 -0.9,-0.9 -0.5,0 -0.9,0.4 -0.9,0.9 0.1,0.5 0.5,0.9 0.9,0.9 m 3.7,7 c 0,0.4 -0.2,0.7 -0.6,0.8 -0.1,0.2 -0.3,0.4 -0.6,0.4 -0.3,0 -0.6,-0.3 -0.6,-0.6 0,-0.3 0.3,-0.6 0.6,-0.6 0.3,0 0.5,0.2 0.5,0.4 0.1,0 0.2,-0.1 0.2,-0.4 l 0,-0.2 -0.4,0 c -0.4,0 -0.7,-0.1 -1,-0.3 0,-0.1 0.1,-0.3 0.1,-0.4 0,-0.1 0,-0.3 0,-0.3 l -0.2,-1.6 -0.5,0 c 0.2,0.4 0.4,0.8 0.4,1.3 0,1.4 -1.2,2.6 -2.6,2.6 -1.4,0 -2.6,-1.2 -2.6,-2.6 0,-1 0.5,-1.8 1.3,-2.3 l 0.2,0.4 c -0.6,0.4 -1.1,1 -1.1,1.8 0,1.2 0.9,2.1 2.1,2.1 1.2,0 2.1,-0.9 2.1,-2.1 0,-1 -0.6,-1.8 -1.5,-2 0,-0.1 0,-0.1 0,-0.2 l -0.5,-1.5 -0.2,0.4 0.6,1.4 c 0.1,0.2 0,0.5 -0.2,0.6 -0.1,0 -0.1,0 -0.2,0 -0.2,0 -0.3,-0.1 -0.4,-0.3 L 14.3,9.8 c -0.1,-0.1 0,-0.3 0,-0.4 l 0.3,-0.6 c 0.4,-0.7 0.9,-1 1.5,-1 0,0 0.1,0 0.1,0 0.4,0 0.7,0.4 0.7,0.8 l 0,2.1 1.8,0 c 0.3,0 0.5,0.2 0.5,0.5 l 0.3,2.5 c 0,0.1 0,0.2 0,0.3 l 0.6,0 0,0.6 z m -0.9,0.6 C 19.2,15.1 19.1,15 19,15 c -0.1,0 -0.2,0.1 -0.2,0.2 0,0.1 0.1,0.2 0.2,0.2 0.1,0 0.2,-0.1 0.2,-0.2"
     id="path4158"
     inkscape:connector-curvature="0"
     style="fill:#ffffff" /></svg>