<?xml version="1.0" encoding="UTF-8" standalone="no"?>
<!-- Generator: Adobe Illustrator 19.0.1, SVG Export Plug-In . SVG Version: 6.00 Build 0)  -->

<svg
   xmlns:dc="http://purl.org/dc/elements/1.1/"
   xmlns:cc="http://creativecommons.org/ns#"
   xmlns:rdf="http://www.w3.org/1999/02/22-rdf-syntax-ns#"
   xmlns:svg="http://www.w3.org/2000/svg"
   xmlns="http://www.w3.org/2000/svg"
   xmlns:sodipodi="http://sodipodi.sourceforge.net/DTD/sodipodi-0.dtd"
   xmlns:inkscape="http://www.inkscape.org/namespaces/inkscape"
   version="1.1"
   id="Layer_1"
   x="0px"
   y="0px"
   viewBox="0 0 34 32.200001"
   xml:space="preserve"
   inkscape:version="0.91 r13725"
   sodipodi:docname="Healthy.svg"
   width="34"
   height="32.200001"><metadata
     id="metadata4721"><rdf:RDF><cc:Work
         rdf:about=""><dc:format>image/svg+xml</dc:format><dc:type
           rdf:resource="http://purl.org/dc/dcmitype/StillImage" /><dc:title></dc:title></cc:Work></rdf:RDF></metadata><defs
     id="defs4719" /><sodipodi:namedview
     pagecolor="#ffffff"
     bordercolor="#666666"
     borderopacity="1"
     objecttolerance="10"
     gridtolerance="10"
     guidetolerance="10"
     inkscape:pageopacity="0"
     inkscape:pageshadow="2"
     inkscape:window-width="1288"
     inkscape:window-height="914"
     id="namedview4717"
     showgrid="false"
     fit-margin-top="0"
     fit-margin-left="0"
     fit-margin-right="0"
     fit-margin-bottom="0"
     inkscape:zoom="2.36"
     inkscape:cx="17.3"
     inkscape:cy="16.7"
     inkscape:window-x="129"
     inkscape:window-y="34"
     inkscape:window-maximized="0"
     inkscape:current-layer="Layer_1" /><style
     type="text/css"
     id="style4707">
	.st0{fill:#FAA819;}
	.st1{fill:#FFFFFF;}
</style><path
     class="st0"
     d="M 2.3,0 C 2.3,0 0,0 0,2.3 l 0,24 c 0,0 0,2.3 2.3,2.3 l 29.4,0 c 0,0 2.3,0 2.3,-2.3 l 0,-24 C 34,2.3 34,0 31.7,0 L 2.3,0 Z"
     id="path4709"
     inkscape:connector-curvature="0"
     style="fill:#faa819" /><polygon
     class="st0"
     points="40.7,66.7 45.8,62.5 40.7,60.1 "
     id="polygon4711"
     style="fill:#faa819"
     transform="translate(-32.7,-34.5)" /><path
     class="st1"
     d="M 8.1,13.6 C 8.8,7.9 14.3,8.8 16.7,10.6 16.9,8 17.2,5.3 20.2,4.7 L 20.6,5 c -2.9,1 -3.4,3.1 -3.7,5.7 2.3,-1.8 7.9,-2.7 8.6,3 0.4,5.2 -3.8,11.2 -8.7,10.8 -5,0.3 -9.1,-5.7 -8.7,-10.9"
     id="path4713"
     inkscape:connector-curvature="0"
     style="fill:#ffffff" /><path
     class="st1"
     d="M 16.8,7.5 C 14.4,7 13.4,5.8 13.2,4.1 c 1.7,0.1 3,0.9 3.7,3.2 l -2.3,-2 2.2,2.2 z"
     id="path4715"
     inkscape:connector-curvature="0"
     style="fill:#ffffff" /></svg>