<?xml version="1.0" encoding="UTF-8" standalone="no"?>
<!-- Generator: Adobe Illustrator 19.0.1, SVG Export Plug-In . SVG Version: 6.00 Build 0)  -->

<svg
   xmlns:dc="http://purl.org/dc/elements/1.1/"
   xmlns:cc="http://creativecommons.org/ns#"
   xmlns:rdf="http://www.w3.org/1999/02/22-rdf-syntax-ns#"
   xmlns:svg="http://www.w3.org/2000/svg"
   xmlns="http://www.w3.org/2000/svg"
   xmlns:xlink="http://www.w3.org/1999/xlink"
   xmlns:sodipodi="http://sodipodi.sourceforge.net/DTD/sodipodi-0.dtd"
   xmlns:inkscape="http://www.inkscape.org/namespaces/inkscape"
   version="1.1"
   id="Layer_1"
   x="0px"
   y="0px"
   viewBox="0 0 34 32.200001"
   xml:space="preserve"
   inkscape:version="0.91 r13725"
   sodipodi:docname="Inclusive.svg"
   width="34"
   height="32.200001"><metadata
     id="metadata5298"><rdf:RDF><cc:Work
         rdf:about=""><dc:format>image/svg+xml</dc:format><dc:type
           rdf:resource="http://purl.org/dc/dcmitype/StillImage" /><dc:title></dc:title></cc:Work></rdf:RDF></metadata><defs
     id="defs5296" /><sodipodi:namedview
     pagecolor="#ffffff"
     bordercolor="#666666"
     borderopacity="1"
     objecttolerance="10"
     gridtolerance="10"
     guidetolerance="10"
     inkscape:pageopacity="0"
     inkscape:pageshadow="2"
     inkscape:window-width="1108"
     inkscape:window-height="753"
     id="namedview5294"
     showgrid="false"
     fit-margin-top="0"
     fit-margin-left="0"
     fit-margin-right="0"
     fit-margin-bottom="0"
     inkscape:zoom="2.36"
     inkscape:cx="17.4"
     inkscape:cy="16.2"
     inkscape:window-x="267"
     inkscape:window-y="85"
     inkscape:window-maximized="0"
     inkscape:current-layer="Layer_1" /><style
     type="text/css"
     id="style5264">
	.st0{fill:#F2BB47;}
	.st1{fill:#FFFFFF;}
	.st2{clip-path:url(#SVGID_2_);fill:#FFFFFF;}
</style><path
     class="st0"
     d="M 2.3,0 C 2.3,0 0,0 0,2.3 l 0,24 c 0,0 0,2.3 2.3,2.3 l 29.4,0 c 0,0 2.3,0 2.3,-2.3 l 0,-24 C 34,2.3 34,0 31.7,0 L 2.3,0 Z"
     id="path5266"
     inkscape:connector-curvature="0"
     style="fill:#f2bb47" /><polygon
     class="st0"
     points="40.7,66.2 45.8,62 40.7,59.6 "
     id="polygon5268"
     style="fill:#f2bb47"
     transform="translate(-32.6,-34)" /><path
     class="st1"
     d="m 19.8,5.1 0,-1 -2.4,-0.8 C 17.7,3.2 17.9,2.9 17.9,2.5 17.9,2 17.5,1.6 17,1.6 c -0.5,0 -0.9,0.4 -0.9,0.9 0,0.3 0.2,0.6 0.5,0.8 l -2.4,0.9 0,1 2.1,-0.7 0,1.1 -1.3,3.6 1,0 1,-2.8 1,2.8 1,0 -1.3,-3.6 0,-1.2 2.1,0.7 z"
     id="path5270"
     inkscape:connector-curvature="0"
     style="fill:#ffffff" /><path
     class="st1"
     d="m 19.8,23.5 -2.1,0.7 0,-1.1 1.3,-3.6 -1,0 -1,2.8 -1,-2.8 -1,0 1.3,3.6 0,1.2 -2.1,-0.7 0,1 2.4,0.9 c -0.3,0.1 -0.5,0.4 -0.5,0.8 0,0.5 0.4,0.9 0.9,0.9 0.5,0 0.9,-0.4 0.9,-0.9 0,-0.3 -0.2,-0.6 -0.5,-0.8 l 2.4,-0.9 0,-1.1 z"
     id="path5272"
     inkscape:connector-curvature="0"
     style="fill:#ffffff" /><g
     id="g5274"
     transform="translate(-32.6,-34)"><defs
       id="defs5276"><rect
         id="SVGID_1_"
         x="36.900002"
         y="35.599998"
         width="25.4"
         height="25.4" /></defs><clipPath
       id="SVGID_2_"><use
         xlink:href="#SVGID_1_"
         style="overflow:visible"
         id="use5280"
         x="0"
         y="0"
         width="100%"
         height="100%" /></clipPath><path
       class="st2"
       d="m 61.4,47.5 c -0.3,0 -0.6,0.2 -0.8,0.5 l -0.9,-2.4 -1,0 0.7,2.1 -1.1,0 -3.6,-1.3 0,1 2.8,1 -2.8,1 0,1 3.6,-1.3 1.2,0 -0.7,2.1 1,0 0.9,-2.4 c 0.1,0.3 0.4,0.5 0.8,0.5 0.5,0 0.9,-0.4 0.9,-0.9 0,-0.5 -0.5,-0.9 -1,-0.9"
       id="path5282"
       clip-path="url(#SVGID_2_)"
       inkscape:connector-curvature="0"
       style="fill:#ffffff" /><path
       class="st2"
       d="m 44.4,47.3 0,-1 -3.6,1.3 -1.2,0 0.7,-2.1 -1,0 -0.7,2.5 c -0.1,-0.3 -0.4,-0.5 -0.8,-0.5 -0.5,0 -0.9,0.4 -0.9,0.9 0,0.5 0.4,0.9 0.9,0.9 0.3,0 0.6,-0.2 0.8,-0.5 l 0.9,2.4 1,0 -0.7,-2.1 1.1,0 3.6,1.3 0,-1 -2.8,-1 2.7,-1.1 z"
       id="path5284"
       clip-path="url(#SVGID_2_)"
       inkscape:connector-curvature="0"
       style="fill:#ffffff" /></g><path
     class="st1"
     d="M 25.9,6.6 C 26.2,6.3 26.2,5.7 25.9,5.4 25.6,5.1 25,5.1 24.7,5.4 24.5,5.6 24.4,6 24.5,6.3 l -2.3,-1.1 -0.7,0.7 2,1 -0.8,0.8 -3.5,1.6 0.7,0.7 2.7,-1.2 -1.2,2.6 0.7,0.7 1.6,-3.5 0.8,-0.8 1,2 0.7,-0.7 -1.1,-2.3 c 0.2,0.1 0.6,0.1 0.8,-0.2"
     id="path5286"
     inkscape:connector-curvature="0"
     style="fill:#ffffff" /><path
     class="st1"
     d="m 11.3,21 3.5,-1.6 -0.7,-0.7 -2.7,1.2 1.2,-2.7 -0.7,-0.7 -1.6,3.5 -0.8,0.8 -1,-2 -0.7,0.7 1.1,2.3 C 8.6,21.7 8.2,21.8 8,22 c -0.3,0.3 -0.3,0.9 0,1.2 0.3,0.3 0.9,0.3 1.2,0 0.2,-0.2 0.3,-0.6 0.2,-0.9 l 2.3,1.1 0.7,-0.7 -2,-1 0.9,-0.7 z"
     id="path5288"
     inkscape:connector-curvature="0"
     style="fill:#ffffff" /><path
     class="st1"
     d="M 25.9,22 C 25.7,21.8 25.3,21.7 25,21.8 l 1.1,-2.3 -0.7,-0.7 -1,2 -0.7,-0.8 -1.6,-3.5 -0.7,0.7 1.2,2.7 -2.7,-1.2 -0.7,0.7 3.5,1.6 0.8,0.8 -2,1 0.7,0.7 2.3,-1.1 c -0.1,0.3 0,0.7 0.2,0.9 0.3,0.3 0.9,0.3 1.2,0 0.4,-0.4 0.4,-0.9 0,-1.3"
     id="path5290"
     inkscape:connector-curvature="0"
     style="fill:#ffffff" /><path
     class="st1"
     d="M 14.8,9.2 11.4,7.6 10.6,6.8 12.6,5.8 11.9,5.1 9.6,6.2 C 9.7,5.9 9.6,5.5 9.4,5.3 9.1,5 8.5,5 8.2,5.3 7.9,5.6 7.9,6.2 8.2,6.5 8.4,6.7 8.8,6.8 9.1,6.7 L 8,9 l 0.7,0.7 1,-2 0.8,0.8 1.6,3.5 0.7,-0.7 -1.4,-2.6 2.7,1.2 0.7,-0.7 z"
     id="path5292"
     inkscape:connector-curvature="0"
     style="fill:#ffffff" /></svg>