<?xml version="1.0" encoding="UTF-8" standalone="no"?>
<!-- Generator: Adobe Illustrator 19.0.1, SVG Export Plug-In . SVG Version: 6.00 Build 0)  -->

<svg
   xmlns:dc="http://purl.org/dc/elements/1.1/"
   xmlns:cc="http://creativecommons.org/ns#"
   xmlns:rdf="http://www.w3.org/1999/02/22-rdf-syntax-ns#"
   xmlns:svg="http://www.w3.org/2000/svg"
   xmlns="http://www.w3.org/2000/svg"
   xmlns:sodipodi="http://sodipodi.sourceforge.net/DTD/sodipodi-0.dtd"
   xmlns:inkscape="http://www.inkscape.org/namespaces/inkscape"
   version="1.1"
   id="Layer_1"
   x="0px"
   y="0px"
   viewBox="0 0 38.400002 33.299999"
   xml:space="preserve"
   inkscape:version="0.91 r13725"
   sodipodi:docname="Innovative.svg"
   width="38.400002"
   height="33.299999"><metadata
     id="metadata5865"><rdf:RDF><cc:Work
         rdf:about=""><dc:format>image/svg+xml</dc:format><dc:type
           rdf:resource="http://purl.org/dc/dcmitype/StillImage" /><dc:title /></cc:Work></rdf:RDF></metadata><defs
     id="defs5863" /><sodipodi:namedview
     pagecolor="#ffffff"
     bordercolor="#666666"
     borderopacity="1"
     objecttolerance="10"
     gridtolerance="10"
     guidetolerance="10"
     inkscape:pageopacity="0"
     inkscape:pageshadow="2"
     inkscape:window-width="1156"
     inkscape:window-height="775"
     id="namedview5861"
     showgrid="false"
     fit-margin-top="0"
     fit-margin-left="0"
     fit-margin-right="0"
     fit-margin-bottom="0"
     inkscape:zoom="4.72"
     inkscape:cx="-1.6140792"
     inkscape:cy="7.3080228"
     inkscape:window-x="258"
     inkscape:window-y="71"
     inkscape:window-maximized="0"
     inkscape:current-layer="Layer_1" /><style
     type="text/css"
     id="style5841">
	.st0{fill:#EE836C;}
	.st1{fill:#FFFFFF;}
</style><path
     class="st0"
     d="m 2.3,0.61391561 c 0,0 -2.3,0 -2.3,2.59266549 L 0,30.260483 c 0,0 0,2.592665 2.3,2.592665 l 29.4,0 c 0,0 2.3,0 2.3,-2.592665 L 34,3.2065811 c 0,0 0,-2.59266549 -2.3,-2.59266549 l -29.4,0 z"
     id="path5843"
     inkscape:connector-curvature="0"
     style="fill:#ee836c" /><polygon
     class="st0"
     points="69,56.3 64.6,51.3 62.4,56.4 "
     id="polygon5845"
     style="fill:#ee836c"
     transform="matrix(1,0,0,1.1272459,-30.6,-41.094183)" /><path
     class="st1"
     d="M 10.3,17.973503 C 9.9,18.762575 9.4,19.326197 8.9,19.664371 8.5,19.88982 8.1,20.002545 7.7,20.002545 l 0,0 c -0.1,0 -0.2,0 -0.2,0 l 0,2.479941 2.3,0 C 9.7,22.257037 9.7,22.144311 9.7,21.918864 c 0,-0.676349 0.5,-1.239971 1.2,-1.239971 l 0,0 c 0.1,0 0.1,0 0.2,0 0.8,0 1.4,-0.225449 1.8,-0.676348 0.3,-0.338174 0.4,-0.789071 0.4,-1.352695 0,-0.338174 -0.1,-0.789073 -0.2,-1.127246 C 13,17.18443 12.8,16.95898 12.7,16.846257 L 13,16.733531 c 0.1,0.112726 0.3,0.338175 0.4,0.676348 0.2,0.338175 0.3,0.789072 0.2,1.239971 0,0.563624 -0.2,1.127246 -0.5,1.46542 -0.3,0.338174 -0.9,0.676347 -2,0.676347 -0.1,0 -0.1,0 -0.2,0 -0.5,0 -0.9,0.450898 -0.9,1.014521 0,0.563623 0.4,1.014522 0.9,1.014522 0.1,0 0.2,0 0.2,0 l 0,0 c 1.4,0 2.5,-0.450899 3.2,-1.352695 0.7,-0.789072 1,-1.916318 1,-2.93084 0,-1.014521 -0.3,-1.916318 -0.7,-2.70539 0,0 0,0 0,0 -0.2,-0.338174 -0.5,-0.676348 -0.9,-1.014521 -0.3,-0.225449 -0.6,-0.338174 -1,-0.450898 0,0 0,0 -0.1,0 -0.1,0 -0.1,0 -0.2,0 0,0 -0.1,0 -0.1,0 l -0.9,0 c 0,0.112724 0,0.225449 0,0.338173 -0.3,1.46542 -0.7,2.479941 -1.1,3.269014"
     id="path5847"
     inkscape:connector-curvature="0"
     style="fill:#ffffff" /><path
     class="st1"
     d="m 10.6,13.351794 c 0.2,0.112724 0.4,0.22545 0.6,0.450899 1.1,-0.338175 1.9,-1.578145 1.9,-2.930839 0,-1.6908696 -1.2,-3.0435647 -2.7,-3.0435647 -1.5,0 -2.7,1.3526951 -2.7,3.0435647 0,1.23997 0.7,2.367216 1.7,2.818114 0.2,-0.22545 0.5,-0.450898 0.8,-0.450898 0.2,0 0.3,0.112724 0.4,0.112724"
     id="path5849"
     inkscape:connector-curvature="0"
     style="fill:#ffffff" /><path
     class="st1"
     d="m 11.1,23.384283 0,0 c -0.1,0 -0.2,0 -0.3,0 -0.1,0 -0.2,0 -0.3,0 l -3,0 0,10.145213 c 0,0.789071 0.6,1.465419 1.3,1.465419 0.7,0 1.3,-0.676348 1.3,-1.465419 l 0,-7.214375 0.5,0 0,7.214375 c 0,0.789071 0.6,1.465419 1.3,1.465419 0.7,0 1.3,-0.676348 1.3,-1.465419 l 0,-10.145213 -1.4,0 c -0.1,-0.112725 -0.4,0 -0.7,0"
     id="path5851"
     inkscape:connector-curvature="0"
     style="fill:#ffffff" /><path
     class="st1"
     d="m 5.8,18.086227 0,0 c 0.1,0.450898 0.3,0.789072 0.7,1.127247 0.3,0.225447 0.6,0.450897 1,0.563622 0.1,0 0.2,0 0.2,0 l 0,0 c 0.4,0 0.7,-0.112725 1.1,-0.338175 0.5,-0.338173 0.9,-0.901796 1.3,-1.578144 0.4,-0.789071 0.7,-1.690868 1.1,-2.930839 0.1,-0.563622 -0.1,-1.127245 -0.6,-1.23997 -0.5,-0.112724 -1,0.112725 -1.1,0.676348 -0.4,1.465419 -0.8,2.479941 -1.1,2.930839 -0.2,0.225449 -0.3,0.338173 -0.4,0.450899 0,0 -0.1,0 -0.1,0 L 8,17.409879 c 0.1,-0.112724 0.1,-0.112724 0.2,-0.338173 0.2,-0.338175 0.6,-1.014522 1,-2.479941 l -0.6,0 c 0,0 -0.1,0 -0.1,0 -0.8,0 -1.5,0.225449 -2,0.789072 -0.5,0.450898 -0.7,1.23997 -0.7,1.803593 -0.1,0.338174 -0.1,0.563624 0,0.901797 0,0 0,0 0,0"
     id="path5853"
     inkscape:connector-curvature="0"
     style="fill:#ffffff" /><path
     class="st1"
     d="m 15.8,9.8573319 c -0.6,0 -1.1,0.5636231 -1.1,1.2399711 0,0.676347 0.5,1.239971 1.1,1.239971 0.6,0 1.1,-0.563624 1.1,-1.239971 0,-0.676348 -0.5,-1.2399711 -1.1,-1.2399711 m -0.1,2.1417671 c -0.4,0 -0.7,-0.338174 -0.7,-0.789072 0,-0.450899 0.3,-0.789072 0.7,-0.789072 0.4,0 0.7,0.338173 0.7,0.789072 0,0.338173 -0.3,0.789072 -0.7,0.789072"
     id="path5855"
     inkscape:connector-curvature="0"
     style="fill:#ffffff" /><path
     class="st1"
     d="m 13.9,12.900896 c 0.3,0 0.6,-0.338175 0.6,-0.676348 0,-0.338173 -0.3,-0.676348 -0.6,-0.676348 -0.3,0 -0.6,0.338175 -0.6,0.676348 0,0.338173 0.3,0.676348 0.6,0.676348 m 0,-1.127246 c 0.2,0 0.4,0.225449 0.4,0.450898 0,0.225449 -0.2,0.450899 -0.4,0.450899 -0.2,0 -0.4,-0.22545 -0.4,-0.450899 0,-0.225449 0.2,-0.450898 0.4,-0.450898"
     id="path5857"
     inkscape:connector-curvature="0"
     style="fill:#ffffff" /><path
     class="st1"
     d="m 26,-0.06243192 c -0.1,0 -0.3,0 -0.4,0 C 25,-1.5278516 23.7,-2.5423729 22.2,-2.5423729 c -1.6,0 -2.9,1.127246 -3.4,2.59266557 -0.2,-0.11272459 -0.4,-0.11272459 -0.6,-0.11272459 -0.8,0 -1.5,0.78907212 -1.5,1.69086882 0,0.1127245 0,0.2254492 0,0.3381739 -1.3,0.6763474 -2.2,2.1417671 -2.2,3.832636 0,1.916318 1.1,3.4944622 2.6,3.9453605 0,0.3381737 0,0.5636227 0.1,0.9017967 0.3,0.676347 0.8,1.014521 1.4,0.901796 0.2,0.789074 0.9,1.239971 1.6,1.239971 0.8,0 1.5,-0.676347 1.7,-1.46542 0.8,0.901797 1.9,1.23997 3.1,0.901797 1.2,-0.338173 2,-1.578144 2.2,-2.930839 1.8,-0.5636229 3,-2.4799409 3,-4.6217082 0.2,-2.4799409 -1.8,-4.73443272 -4.2,-4.73443272 m 1.3,9.24341632 c 0,-0.3381739 0,-0.6763475 -0.1,-1.0145213 -0.1,-0.3381738 -0.2,-0.563623 -0.3,-0.9017967 0,0 0,0.1127245 0,0.2254491 0.5,1.8035935 -0.5,3.7199115 -2.1,4.2835345 -1,0.338174 -2,0.112725 -2.7,-0.563623 0,-0.112724 0,-0.112724 0,-0.225449 0,-0.112724 0,-0.22545 0,-0.22545 -0.2,0.901797 -0.9,1.690869 -1.8,1.690869 -0.6,0 -1.1,-0.338173 -1.4,-0.789072 0.2,0 0.3,-0.112725 0.5,-0.112725 0.1,0 0.2,-0.112723 0.2,-0.112723 C 18.8,11.660925 18,11.210027 17.7,10.420955 17.5,9.9700564 17.5,9.6318828 17.6,9.1809844 17.5,9.293709 17.5,9.4064335 17.4,9.5191581 16.1,8.9555352 15.3,7.4901155 15.3,5.9119713 c 0,-1.4654196 0.7,-2.7053902 1.8,-3.3817376 0.1,0.2254491 0.2,0.3381737 0.4,0.5636228 -0.1,-0.2254491 -0.2,-0.4508983 -0.2,-0.7890721 0,-0.9017966 0.7,-1.69086879 1.5,-1.69086879 0,0 0.1,0 0.1,0 -0.1,0.45089839 -0.2,0.78907219 -0.2,1.23997049 0,0.1127247 0,0.2254491 0,0.3381738 0.1,-2.14176723 1.7,-3.7199115 3.6,-3.7199115 1.2,0 2.3,0.67634755 3,1.80359344 -0.6,0.11272459 -1.1,0.45089836 -1.6,0.78907216 0.6,-0.3381738 1.2,-0.56362298 2,-0.56362298 2.3,0 4.1,2.02904268 4.1,4.62170808 -0.1,1.690869 -1.1,3.2690131 -2.5,4.0580853"
     id="path5859"
     inkscape:connector-curvature="0"
     style="fill:#ffffff" /></svg>