<?xml version="1.0" encoding="UTF-8" standalone="no"?>
<!-- Generator: Adobe Illustrator 19.0.1, SVG Export Plug-In . SVG Version: 6.00 Build 0)  -->

<svg
   xmlns:dc="http://purl.org/dc/elements/1.1/"
   xmlns:cc="http://creativecommons.org/ns#"
   xmlns:rdf="http://www.w3.org/1999/02/22-rdf-syntax-ns#"
   xmlns:svg="http://www.w3.org/2000/svg"
   xmlns="http://www.w3.org/2000/svg"
   xmlns:sodipodi="http://sodipodi.sourceforge.net/DTD/sodipodi-0.dtd"
   xmlns:inkscape="http://www.inkscape.org/namespaces/inkscape"
   version="1.1"
   id="Layer_1"
   x="0px"
   y="0px"
   viewBox="0 0 38.299999 28.6"
   xml:space="preserve"
   inkscape:version="0.91 r13725"
   sodipodi:docname="Prepared.svg"
   width="38.299999"
   height="28.6"><metadata
     id="metadata4765"><rdf:RDF><cc:Work
         rdf:about=""><dc:format>image/svg+xml</dc:format><dc:type
           rdf:resource="http://purl.org/dc/dcmitype/StillImage" /><dc:title></dc:title></cc:Work></rdf:RDF></metadata><defs
     id="defs4763" /><sodipodi:namedview
     pagecolor="#ffffff"
     bordercolor="#666666"
     borderopacity="1"
     objecttolerance="10"
     gridtolerance="10"
     guidetolerance="10"
     inkscape:pageopacity="0"
     inkscape:pageshadow="2"
     inkscape:window-width="1020"
     inkscape:window-height="725"
     id="namedview4761"
     showgrid="false"
     fit-margin-top="0"
     fit-margin-left="0"
     fit-margin-right="0"
     fit-margin-bottom="0"
     inkscape:zoom="2.36"
     inkscape:cx="19.3"
     inkscape:cy="15.1"
     inkscape:window-x="346"
     inkscape:window-y="72"
     inkscape:window-maximized="0"
     inkscape:current-layer="Layer_1" /><style
     type="text/css"
     id="style4749">
	.st0{fill:#00ADEE;}
	.st1{fill:#FFFFFF;}
</style><path
     class="st0"
     d="M 2.3,0 C 2.3,0 0,0 0,2.3 l 0,24 c 0,0 0,2.3 2.3,2.3 l 29.4,0 c 0,0 2.3,0 2.3,-2.3 l 0,-24 C 34,2.3 34,0 31.7,0 L 2.3,0 Z"
     id="path4751"
     inkscape:connector-curvature="0"
     style="fill:#00adee" /><polygon
     class="st0"
     points="69,49.1 64.7,44.1 62.4,49.2 "
     id="polygon4753"
     style="fill:#00adee"
     transform="translate(-30.7,-36.5)" /><path
     class="st1"
     d="m 21,8.3 c 0,-2.2 -1.8,-4 -4,-4 -2.2,0 -4,1.4 -4,3.7 l 0,0.9 c 1.3,0.3 2.5,0.9 3.5,1.9 0.2,0.2 0.6,0.2 0.9,0 1,-1 2.3,-1.7 3.6,-1.9 l 0,-0.6 z"
     id="path4755"
     inkscape:connector-curvature="0"
     style="fill:#ffffff" /><path
     class="st1"
     d="m 25.4,13.8 0,0 0.6,0 c 0.3,0 0.5,-0.2 0.5,-0.5 l 0,-3 -4,0 c -1.9,0 -3.8,0.9 -4.9,2.4 l 0,11.8 c 1.1,-1.4 2.9,-2.4 4.9,-2.4 l 4,0 0,-2.9 c 0,-0.3 -0.2,-0.5 -0.5,-0.5 l -0.6,0 0,0 c -0.5,0 -0.8,-0.4 -0.8,-0.8 0,-0.4 0.4,-0.8 0.8,-0.8 -0.5,0 -0.8,-0.4 -0.8,-0.8 0,-0.4 0.4,-0.8 0.8,-0.8 -0.5,0 -0.8,-0.4 -0.8,-0.8 0,-0.4 0.3,-0.9 0.8,-0.9"
     id="path4757"
     inkscape:connector-curvature="0"
     style="fill:#ffffff" /><path
     class="st1"
     d="m 11.5,10.3 -4,0 0,3 c 0,0.3 0.2,0.5 0.5,0.5 l 0.6,0 0,0 c 0.5,0 0.8,0.4 0.8,0.8 0,0.5 -0.4,0.8 -0.8,0.8 0.5,0 0.8,0.4 0.8,0.8 0,0.5 -0.4,0.8 -0.8,0.8 0.5,0 0.8,0.4 0.8,0.8 0,0.4 -0.4,0.8 -0.8,0.8 l 0,0 -0.6,0 c -0.3,0 -0.5,0.2 -0.5,0.5 l 0,2.9 4,0 c 2,0 3.7,0.9 4.9,2.4 l 0,-11.7 c -1.1,-1.5 -2.9,-2.4 -4.9,-2.4"
     id="path4759"
     inkscape:connector-curvature="0"
     style="fill:#ffffff" /></svg>