<?xml version="1.0" encoding="UTF-8" standalone="no"?>
<!-- Generator: Adobe Illustrator 19.0.1, SVG Export Plug-In . SVG Version: 6.00 Build 0)  -->

<svg
   xmlns:dc="http://purl.org/dc/elements/1.1/"
   xmlns:cc="http://creativecommons.org/ns#"
   xmlns:rdf="http://www.w3.org/1999/02/22-rdf-syntax-ns#"
   xmlns:svg="http://www.w3.org/2000/svg"
   xmlns="http://www.w3.org/2000/svg"
   xmlns:sodipodi="http://sodipodi.sourceforge.net/DTD/sodipodi-0.dtd"
   xmlns:inkscape="http://www.inkscape.org/namespaces/inkscape"
   version="1.1"
   id="Layer_1"
   x="0px"
   y="0px"
   viewBox="0 0 38.299999 31.142372"
   xml:space="preserve"
   inkscape:version="0.91 r13725"
   sodipodi:docname="Resilient.svg"
   width="38.299999"
   height="31.142372"><metadata
     id="metadata53"><rdf:RDF><cc:Work
         rdf:about=""><dc:format>image/svg+xml</dc:format><dc:type
           rdf:resource="http://purl.org/dc/dcmitype/StillImage" /><dc:title></dc:title></cc:Work></rdf:RDF></metadata><defs
     id="defs51" /><sodipodi:namedview
     pagecolor="#ffffff"
     bordercolor="#666666"
     borderopacity="1"
     objecttolerance="10"
     gridtolerance="10"
     guidetolerance="10"
     inkscape:pageopacity="0"
     inkscape:pageshadow="2"
     inkscape:window-width="1190"
     inkscape:window-height="914"
     id="namedview49"
     showgrid="false"
     fit-margin-top="0"
     fit-margin-left="0"
     fit-margin-right="0"
     fit-margin-bottom="0"
     inkscape:zoom="2.36"
     inkscape:cx="-44.047458"
     inkscape:cy="15.1"
     inkscape:window-x="196"
     inkscape:window-y="48"
     inkscape:window-maximized="0"
     inkscape:current-layer="Layer_1" /><style
     type="text/css"
     id="style3">
	.st0{fill:#80BC41;}
	.st1{fill:#FFFFFF;}
</style><path
     class="st0"
     d="M 2.3,0 C 2.3,0 0,0 0,2.5044566 L 0,28.637916 c 0,0 0,2.504457 2.3,2.504457 l 29.4,0 c 0,0 2.3,0 2.3,-2.504457 L 34,2.5044566 C 34,2.5044566 34,0 31.7,0 L 2.3,0 Z"
     id="path5"
     inkscape:connector-curvature="0"
     style="fill:#80bc41" /><polygon
     class="st0"
     points="64.7,50.8 62.4,56 69,55.8 "
     id="polygon7"
     style="fill:#80bc41"
     transform="matrix(1,0,0,1.0888942,-30.7,-39.744637)" /><path
     class="st1"
     d="m 8.7,13.720066 -1.1,0 c -0.2,0 -0.4,0.217779 -0.4,0.435558 l 0,13.175619 c 0,0.217779 0.2,0.435558 0.4,0.435558 l 1.1,0 c 0.2,0 0.4,-0.217779 0.4,-0.435558 l 0,-13.175619 c 0,-0.217779 -0.2,-0.435558 -0.4,-0.435558"
     id="path9"
     inkscape:connector-curvature="0"
     style="fill:#ffffff" /><path
     class="st1"
     d="m 11.3,13.720066 -1.1,0 c -0.2,0 -0.4,0.217779 -0.4,0.435558 l 0,13.175619 c 0,0.217779 0.2,0.435558 0.4,0.435558 l 1.1,0 c 0.2,0 0.4,-0.217779 0.4,-0.435558 l 0,-13.175619 c 0,-0.217779 -0.2,-0.435558 -0.4,-0.435558"
     id="path11"
     inkscape:connector-curvature="0"
     style="fill:#ffffff" /><rect
     x="7.500001"
     y="12.957842"
     class="st1"
     width="4.0999999"
     height="6.9689226"
     id="rect13"
     style="fill:#ffffff" /><path
     class="st1"
     d="m 11.4,10.780052 c 0,1.088894 -0.8,1.85112 -1.7,1.85112 -0.9,0 -1.7,-0.871115 -1.7,-1.85112 0,-1.088894 0.8,-1.8511199 1.7,-1.8511199 0.9,0 1.7,0.7622259 1.7,1.8511199"
     id="path15"
     inkscape:connector-curvature="0"
     style="fill:#ffffff" /><path
     class="st1"
     d="m 5.6,19.055648 c -0.2,0 -0.5,-0.217779 -0.5,-0.544447 l 0,-3.266683 c 0,0 -0.2,-2.831125 1.7,-2.831125 1.5,0 4.6,-0.108889 4.6,-0.108889 0,0 0.7,-0.108889 0.8,-0.980005 0,-0.653336 0,-2.5044563 0.1,-3.2666822 0,-0.3266683 0.3,-0.4355577 0.6,-0.4355577 l 0.6,0 c 0.3,0 0.6,0.2177788 0.6,0.4355577 l 0,3.3755722 c 0,0 0,1.088894 0.8,1.088894 0.8,0 4.3,0 4.3,0 0,0 0.8,0 0.8,-1.633341 0,-1.0888946 0,-2.0688993 0,-2.7222358 0,-0.2177788 0.3,-0.4355577 0.5,-0.4355577 l 0.5,0 c 0.2,0 0.4,0.2177789 0.5,0.4355577 l 0,2.8311248 c 0,0 0,1.524452 1,1.524452 0.9,0 3.1,0 3.1,0 0,0 2.8,-0.217779 3.1,1.960009 0.1,1.306673 0.1,3.048904 0.2,4.028909 0,0.326668 -0.1,0.544447 -0.4,0.544447 l -0.7,0 c -0.2,0 -0.4,-0.326668 -0.4,-0.544447 l -0.1,-3.266683 c 0,-0.217779 -0.4,-0.435557 -0.6,-0.435557 l -3.9,-0.217779 c -0.1,0 -0.2,0 -0.2,-0.10889 l -1.5,-1.088894 c -0.2,-0.108889 -0.4,-0.108889 -0.5,0 l -1.4,0.980005 c -0.1,0.108889 -0.2,0.108889 -0.3,0.108889 l -3.8,-0.108889 c -0.1,0 -0.2,0.108889 -0.3,0.108889 l -1.2,-1.197783 c -0.2,-0.10889 -0.4,-0.10889 -0.6,0 l -1.1,1.088894 c -0.1,0.108889 -0.3,0.217779 -0.5,0.108889 L 9.9,13.720066 c -0.1,-0.108889 -0.3,-0.108889 -0.4,0 l -2,0.980005 c -0.1,0 -0.1,0.10889 -0.2,0.10889 l -0.2,0 c -0.2,0 -0.4,0.217778 -0.4,0.544447 l 0,3.266682 c 0,0.217779 -0.2,0.544447 -0.5,0.544447 l -0.6,0 z"
     id="path17"
     inkscape:connector-curvature="0"
     style="fill:#ffffff" /><path
     class="st1"
     d="m 16.1,13.720066 -0.9,0 c -0.2,0 -0.4,0.217779 -0.4,0.435558 l 0,13.06673 c 0,0.217779 0.2,0.435558 0.4,0.435558 l 0.9,0 c 0.2,0 0.4,-0.217779 0.4,-0.435558 l 0,-13.06673 c 0,-0.217779 -0.2,-0.435558 -0.4,-0.435558"
     id="path19"
     inkscape:connector-curvature="0"
     style="fill:#ffffff" /><path
     class="st1"
     d="m 18.7,13.720066 -1,0 c -0.2,0 -0.4,0.217779 -0.4,0.435558 l 0,13.06673 c 0,0.217779 0.2,0.435558 0.4,0.435558 l 1,0 c 0.2,0 0.4,-0.217779 0.4,-0.435558 l 0,-13.06673 c 0,-0.217779 -0.2,-0.435558 -0.4,-0.435558"
     id="path21"
     inkscape:connector-curvature="0"
     style="fill:#ffffff" /><rect
     x="14.899999"
     y="12.957842"
     class="st1"
     width="4.0999999"
     height="6.9689226"
     id="rect23"
     style="fill:#ffffff" /><path
     class="st1"
     d="m 23.7,13.720066 -0.9,0 c -0.2,0 -0.4,0.217779 -0.4,0.435558 l 0,12.957841 c 0,0.217778 0.2,0.435557 0.4,0.435557 l 0.9,0 c 0.2,0 0.4,-0.217779 0.4,-0.435557 l 0,-12.848951 c 0,-0.326669 -0.2,-0.544448 -0.4,-0.544448"
     id="path25"
     inkscape:connector-curvature="0"
     style="fill:#ffffff" /><path
     class="st1"
     d="m 26.3,13.720066 -1,0 c -0.2,0 -0.4,0.217779 -0.4,0.435558 l 0,13.06673 c 0,0.217779 0.2,0.435558 0.4,0.435558 l 1,0 c 0.2,0 0.4,-0.217779 0.4,-0.435558 l 0,-13.06673 c 0,-0.217779 -0.2,-0.435558 -0.4,-0.435558"
     id="path27"
     inkscape:connector-curvature="0"
     style="fill:#ffffff" /><rect
     x="22.5"
     y="12.957842"
     class="st1"
     width="4.0999999"
     height="6.9689226"
     id="rect29"
     style="fill:#ffffff" /><path
     class="st1"
     d="m 18.7,10.780052 c 0,1.088894 -0.8,1.85112 -1.7,1.85112 -0.9,0 -1.7,-0.871115 -1.7,-1.85112 0,-1.088894 0.8,-1.8511199 1.7,-1.8511199 0.9,0 1.7,0.7622259 1.7,1.8511199"
     id="path31"
     inkscape:connector-curvature="0"
     style="fill:#ffffff" /><path
     class="st1"
     d="m 26.2,10.780052 c 0,1.088894 -0.8,1.85112 -1.7,1.85112 -0.9,0 -1.7,-0.871115 -1.7,-1.85112 0,-1.088894 0.8,-1.8511199 1.7,-1.8511199 0.9,0 1.7,0.7622259 1.7,1.8511199"
     id="path33"
     inkscape:connector-curvature="0"
     style="fill:#ffffff" /><polygon
     class="st1"
     points="44.8,40.3 45.3,40.3 45,40.7 45.1,41.2 44.6,41 44.2,41.2 44.3,40.7 43.9,40.4 44.4,40.3 44.6,39.9 "
     id="polygon35"
     style="fill:#ffffff"
     transform="matrix(1,0,0,1.0888942,-30.7,-39.744637)" /><polygon
     class="st1"
     points="48.3,39.7 48.8,40 48.3,40.2 48.2,40.7 47.9,40.3 47.4,40.4 47.7,40 47.4,39.5 47.9,39.6 48.3,39.3 "
     id="polygon37"
     style="fill:#ffffff"
     transform="matrix(1,0,0,1.0888942,-30.7,-39.744637)" /><polygon
     class="st1"
     points="47.3,42.5 47.8,42.6 47.4,42.9 47.5,43.4 47.1,43.2 46.6,43.4 46.7,42.9 46.4,42.6 46.8,42.5 47.1,42.1 "
     id="polygon39"
     style="fill:#ffffff"
     transform="matrix(1,0,0,1.0888942,-30.7,-39.744637)" /><polygon
     class="st1"
     points="42.8,42.1 43.3,42.2 43,42.5 43.1,43 42.7,42.8 42.2,43.1 42.3,42.6 41.9,42.3 42.4,42.2 42.6,41.7 "
     id="polygon41"
     style="fill:#ffffff"
     transform="matrix(1,0,0,1.0888942,-30.7,-39.744637)" /><polygon
     class="st1"
     points="50.1,42.4 50.6,42.6 50.1,42.8 50,43.3 49.7,43 49.2,43 49.4,42.6 49.2,42.2 49.7,42.2 50,41.9 "
     id="polygon43"
     style="fill:#ffffff"
     transform="matrix(1,0,0,1.0888942,-30.7,-39.744637)" /><polygon
     class="st1"
     points="51.1,40.5 51.5,40.7 51,40.9 50.9,41.4 50.6,41 50.1,41 50.4,40.6 50.2,40.2 50.7,40.3 51,40 "
     id="polygon45"
     style="fill:#ffffff"
     transform="matrix(1,0,0,1.0888942,-30.7,-39.744637)" /><polygon
     class="st1"
     points="53.7,41.5 54.2,41.6 53.8,41.9 53.9,42.4 53.5,42.2 53.1,42.5 53.1,42 52.7,41.7 53.2,41.6 53.4,41.1 "
     id="polygon47"
     style="fill:#ffffff"
     transform="matrix(1,0,0,1.0888942,-30.7,-39.744637)" /></svg>