<?xml version="1.0" encoding="UTF-8" standalone="no"?>
<!-- Generator: Adobe Illustrator 19.0.1, SVG Export Plug-In . SVG Version: 6.00 Build 0)  -->

<svg
   xmlns:dc="http://purl.org/dc/elements/1.1/"
   xmlns:cc="http://creativecommons.org/ns#"
   xmlns:rdf="http://www.w3.org/1999/02/22-rdf-syntax-ns#"
   xmlns:svg="http://www.w3.org/2000/svg"
   xmlns="http://www.w3.org/2000/svg"
   xmlns:sodipodi="http://sodipodi.sourceforge.net/DTD/sodipodi-0.dtd"
   xmlns:inkscape="http://www.inkscape.org/namespaces/inkscape"
   version="1.1"
   id="Layer_1"
   x="0px"
   y="0px"
   viewBox="0 0 34 32.200001"
   xml:space="preserve"
   inkscape:version="0.91 r13725"
   sodipodi:docname="Welcoming.svg"
   width="34"
   height="32.200001"><metadata
     id="metadata17"><rdf:RDF><cc:Work
         rdf:about=""><dc:format>image/svg+xml</dc:format><dc:type
           rdf:resource="http://purl.org/dc/dcmitype/StillImage" /><dc:title></dc:title></cc:Work></rdf:RDF></metadata><defs
     id="defs15" /><sodipodi:namedview
     pagecolor="#ffffff"
     bordercolor="#666666"
     borderopacity="1"
     objecttolerance="10"
     gridtolerance="10"
     guidetolerance="10"
     inkscape:pageopacity="0"
     inkscape:pageshadow="2"
     inkscape:window-width="1513"
     inkscape:window-height="955"
     id="namedview13"
     showgrid="false"
     fit-margin-top="0"
     fit-margin-left="0"
     fit-margin-right="0"
     fit-margin-bottom="0"
     inkscape:zoom="2.36"
     inkscape:cx="17.4"
     inkscape:cy="16.2"
     inkscape:window-x="181"
     inkscape:window-y="18"
     inkscape:window-maximized="0"
     inkscape:current-layer="Layer_1" /><style
     type="text/css"
     id="style3">
	.st0{fill:#ADD58F;}
	.st1{fill:#FFFFFF;}
</style><path
     class="st0"
     d="M 2.3,0 C 2.3,0 0,0 0,2.3 l 0,24 c 0,0 0,2.3 2.3,2.3 l 29.4,0 c 0,0 2.3,0 2.3,-2.3 l 0,-24 C 34,2.3 34,0 31.7,0 L 2.3,0 Z"
     id="path5"
     inkscape:connector-curvature="0"
     style="fill:#add58f" /><polygon
     class="st0"
     points="40.7,66.2 45.8,62 40.7,59.6 "
     id="polygon7"
     style="fill:#add58f"
     transform="translate(-32.6,-34)" /><polyline
     class="st1"
     points="62.4,49.5 49.7,36.9 49.6,36.9 36.8,49.5 38.4,51.1 49.6,39.9 60.9,51.1 "
     id="polyline9"
     style="fill:#ffffff"
     transform="translate(-32.6,-34)" /><polygon
     class="st1"
     points="52.9,58.9 52.9,50.5 46.5,50.5 46.5,58.9 40.8,58.9 40.8,50.9 49.6,42.1 58.7,51.1 58.7,58.9 "
     id="polygon11"
     style="fill:#ffffff"
     transform="translate(-32.6,-34)" /></svg>